<svg width=" 100%" height=" 100%" viewBox="0 0 18 18" fill="none" xmlns="http://www.w3.org/2000/svg">
<path d="M8.2124 9.52503L7.1249 8.45628C6.9874 8.31878 6.81553 8.25003 6.60928 8.25003C6.40303 8.25003 6.2249 8.32503 6.0749 8.47503C5.9374 8.61253 5.86865 8.78753 5.86865 9.00003C5.86865 9.21253 5.9374 9.38753 6.0749 9.52503L7.6874 11.1375C7.8374 11.2875 8.0124 11.3625 8.2124 11.3625C8.4124 11.3625 8.5874 11.2875 8.7374 11.1375L11.9249 7.95003C12.0749 7.80003 12.1468 7.62503 12.1405 7.42503C12.1343 7.22503 12.0624 7.05003 11.9249 6.90003C11.7749 6.75003 11.5968 6.6719 11.3905 6.66565C11.1843 6.6594 11.0062 6.73128 10.8562 6.88128L8.2124 9.52503ZM6.1124 16.3125L5.0249 14.475L2.9624 14.025C2.7749 13.9875 2.6249 13.8907 2.5124 13.7344C2.3999 13.5782 2.35615 13.4063 2.38115 13.2188L2.5874 11.1L1.18115 9.48753C1.05615 9.35003 0.993652 9.18753 0.993652 9.00003C0.993652 8.81253 1.05615 8.65003 1.18115 8.51253L2.5874 6.90003L2.38115 4.78128C2.35615 4.59378 2.3999 4.4219 2.5124 4.26565C2.6249 4.1094 2.7749 4.01253 2.9624 3.97503L5.0249 3.52503L6.1124 1.68753C6.2124 1.52503 6.3499 1.41565 6.5249 1.3594C6.6999 1.30315 6.8749 1.31253 7.0499 1.38753L8.9999 2.21253L10.9499 1.38753C11.1249 1.31253 11.2999 1.30315 11.4749 1.3594C11.6499 1.41565 11.7874 1.52503 11.8874 1.68753L12.9749 3.52503L15.0374 3.97503C15.2249 4.01253 15.3749 4.1094 15.4874 4.26565C15.5999 4.4219 15.6437 4.59378 15.6187 4.78128L15.4124 6.90003L16.8187 8.51253C16.9437 8.65003 17.0062 8.81253 17.0062 9.00003C17.0062 9.18753 16.9437 9.35003 16.8187 9.48753L15.4124 11.1L15.6187 13.2188C15.6437 13.4063 15.5999 13.5782 15.4874 13.7344C15.3749 13.8907 15.2249 13.9875 15.0374 14.025L12.9749 14.475L11.8874 16.3125C11.7874 16.475 11.6499 16.5844 11.4749 16.6407C11.2999 16.6969 11.1249 16.6875 10.9499 16.6125L8.9999 15.7875L7.0499 16.6125C6.8749 16.6875 6.6999 16.6969 6.5249 16.6407C6.3499 16.5844 6.2124 16.475 6.1124 16.3125ZM7.0874 14.9625L8.9999 14.1375L10.9499 14.9625L11.9999 13.1625L14.0624 12.675L13.8749 10.575L15.2624 9.00003L13.8749 7.38753L14.0624 5.28753L11.9999 4.83753L10.9124 3.03753L8.9999 3.86253L7.0499 3.03753L5.9999 4.83753L3.9374 5.28753L4.1249 7.38753L2.7374 9.00003L4.1249 10.575L3.9374 12.7125L5.9999 13.1625L7.0874 14.9625Z" fill="currentColor"/>
</svg>