<svg width=" 100%" height=" 100%" viewBox="0 0 19 18" fill="none" xmlns="http://www.w3.org/2000/svg">
<path d="M5.75 4.33125C5.0625 4.88125 4.51563 5.55938 4.10938 6.36563C3.70313 7.17188 3.5 8.05 3.5 9C3.5 10.4375 3.9375 11.6906 4.8125 12.7594C5.6875 13.8281 6.79375 14.5188 8.13125 14.8313C8.31875 14.8813 8.46875 14.9906 8.58125 15.1594C8.69375 15.3281 8.75 15.5125 8.75 15.7125C8.75 15.9125 8.68125 16.0813 8.54375 16.2188C8.40625 16.3563 8.25 16.4063 8.075 16.3688C6.325 16.0438 4.875 15.1969 3.725 13.8281C2.575 12.4594 2 10.85 2 9C2 7.8625 2.22812 6.8125 2.68438 5.85C3.14063 4.8875 3.7625 4.06251 4.55 3.37501H3.5C3.2875 3.37501 3.10938 3.30313 2.96563 3.15938C2.82188 3.01563 2.75 2.83751 2.75 2.62501C2.75 2.41251 2.82188 2.23438 2.96563 2.09063C3.10938 1.94688 3.2875 1.87501 3.5 1.87501H6.5C6.7125 1.87501 6.89063 1.94688 7.03438 2.09063C7.17813 2.23438 7.25 2.41251 7.25 2.62501V5.625C7.25 5.8375 7.17813 6.01563 7.03438 6.15938C6.89063 6.30313 6.7125 6.375 6.5 6.375C6.2875 6.375 6.10938 6.30313 5.96563 6.15938C5.82188 6.01563 5.75 5.8375 5.75 5.625V4.33125ZM8.43125 10.3313L12.1625 6.6C12.3125 6.45 12.4875 6.37813 12.6875 6.38438C12.8875 6.39063 13.0625 6.46875 13.2125 6.61875C13.35 6.76875 13.4219 6.94375 13.4281 7.14375C13.4344 7.34375 13.3625 7.51875 13.2125 7.66875L8.95625 11.925C8.80625 12.075 8.63125 12.15 8.43125 12.15C8.23125 12.15 8.05625 12.075 7.90625 11.925L5.7875 9.7875C5.65 9.65 5.57813 9.47813 5.57188 9.27188C5.56563 9.06563 5.6375 8.8875 5.7875 8.7375C5.925 8.6 6.1 8.53125 6.3125 8.53125C6.525 8.53125 6.7 8.6 6.8375 8.7375L8.43125 10.3313ZM14.45 14.625H15.5C15.7125 14.625 15.8906 14.6969 16.0344 14.8406C16.1781 14.9844 16.25 15.1625 16.25 15.375C16.25 15.5875 16.1781 15.7656 16.0344 15.9094C15.8906 16.0531 15.7125 16.125 15.5 16.125H12.5C12.2875 16.125 12.1094 16.0531 11.9656 15.9094C11.8219 15.7656 11.75 15.5875 11.75 15.375V12.375C11.75 12.1625 11.8219 11.9844 11.9656 11.8406C12.1094 11.6969 12.2875 11.625 12.5 11.625C12.7125 11.625 12.8906 11.6969 13.0344 11.8406C13.1781 11.9844 13.25 12.1625 13.25 12.375V13.6688C13.9375 13.1063 14.4844 12.425 14.8906 11.625C15.2969 10.825 15.5 9.95 15.5 9C15.5 7.5625 15.0625 6.30938 14.1875 5.24063C13.3125 4.17188 12.2063 3.48126 10.8688 3.16876C10.6813 3.11876 10.5313 3.00938 10.4188 2.84063C10.3063 2.67188 10.25 2.48751 10.25 2.28751C10.25 2.08751 10.3188 1.91876 10.4563 1.78126C10.5938 1.64376 10.75 1.59376 10.925 1.63126C12.675 1.95626 14.125 2.80313 15.275 4.17188C16.425 5.54063 17 7.15 17 9C17 10.1375 16.7719 11.1875 16.3156 12.15C15.8594 13.1125 15.2375 13.9375 14.45 14.625Z" fill="currentColor"/>
</svg>