<svg width=" 100%" height=" 100%" viewBox="0 0 24 24" fill="none" xmlns="http://www.w3.org/2000/svg">
<path d="M4.3077 19.5C3.81058 19.5 3.38503 19.3229 3.03102 18.9689C2.67701 18.6149 2.5 18.1894 2.5 17.6923V14.9519C2.5 14.7878 2.54712 14.6423 2.64135 14.5154C2.73558 14.3885 2.86154 14.3019 3.01923 14.2558C3.45769 14.0519 3.81411 13.7492 4.08847 13.3477C4.36283 12.9461 4.5 12.4967 4.5 11.9996C4.5 11.5024 4.36283 11.0532 4.08847 10.6519C3.81411 10.2506 3.45769 9.94803 3.01923 9.74418C2.86154 9.69803 2.73558 9.61149 2.64135 9.48457C2.54712 9.35764 2.5 9.21213 2.5 9.04803V6.3077C2.5 5.81058 2.67701 5.38503 3.03102 5.03103C3.38503 4.67701 3.81058 4.5 4.3077 4.5H19.6923C20.1894 4.5 20.6149 4.67701 20.9689 5.03103C21.3229 5.38503 21.5 5.81058 21.5 6.3077V9.04803C21.5 9.21213 21.4528 9.35764 21.3586 9.48457C21.2644 9.61149 21.1384 9.69803 20.9807 9.74418C20.5423 9.94803 20.1858 10.2507 19.9115 10.6523C19.6371 11.0539 19.5 11.5032 19.5 12.0004C19.5 12.4975 19.6371 12.9468 19.9115 13.3481C20.1858 13.7494 20.5423 14.0519 20.9807 14.2558C21.1384 14.3019 21.2644 14.3885 21.3586 14.5154C21.4528 14.6423 21.5 14.7878 21.5 14.9519V17.6923C21.5 18.1894 21.3229 18.6149 20.9689 18.9689C20.6149 19.3229 20.1894 19.5 19.6923 19.5H4.3077ZM4.3077 18H19.6923C19.782 18 19.8557 17.9711 19.9134 17.9134C19.9711 17.8557 20 17.782 20 17.6923V15.45C19.3833 15.0833 18.8958 14.5958 18.5375 13.9875C18.1791 13.3791 18 12.7166 18 12C18 11.2833 18.1791 10.6208 18.5375 10.0125C18.8958 9.40414 19.3833 8.91664 20 8.54998V6.3077C20 6.21795 19.9711 6.14423 19.9134 6.08652C19.8557 6.02882 19.782 5.99998 19.6923 5.99998H4.3077C4.21795 5.99998 4.14423 6.02882 4.08653 6.08652C4.02883 6.14423 3.99998 6.21795 3.99998 6.3077V8.54998C4.61664 8.91664 5.10414 9.40414 5.46248 10.0125C5.82081 10.6208 5.99998 11.2833 5.99998 12C5.99998 12.7166 5.82081 13.3791 5.46248 13.9875C5.10414 14.5958 4.61664 15.0833 3.99998 15.45V17.6923C3.99998 17.782 4.02883 17.8557 4.08653 17.9134C4.14423 17.9711 4.21795 18 4.3077 18ZM12.0003 16.6538C12.2129 16.6538 12.391 16.5819 12.5346 16.4381C12.6782 16.2943 12.75 16.1161 12.75 15.9035C12.75 15.6909 12.6781 15.5128 12.5343 15.3692C12.3904 15.2256 12.2122 15.1538 11.9997 15.1538C11.7871 15.1538 11.609 15.2257 11.4654 15.3696C11.3218 15.5134 11.25 15.6916 11.25 15.9042C11.25 16.1167 11.3219 16.2948 11.4657 16.4384C11.6095 16.582 11.7877 16.6538 12.0003 16.6538ZM12.0003 12.75C12.2129 12.75 12.391 12.6781 12.5346 12.5343C12.6782 12.3904 12.75 12.2122 12.75 11.9997C12.75 11.7871 12.6781 11.609 12.5343 11.4654C12.3904 11.3218 12.2122 11.25 11.9997 11.25C11.7871 11.25 11.609 11.3219 11.4654 11.4657C11.3218 11.6095 11.25 11.7877 11.25 12.0003C11.25 12.2129 11.3219 12.391 11.4657 12.5346C11.6095 12.6782 11.7877 12.75 12.0003 12.75ZM12.0003 8.84613C12.2129 8.84613 12.391 8.77422 12.5346 8.6304C12.6782 8.48658 12.75 8.30838 12.75 8.0958C12.75 7.88322 12.6781 7.70513 12.5343 7.56153C12.3904 7.41794 12.2122 7.34615 11.9997 7.34615C11.7871 7.34615 11.609 7.41806 11.4654 7.56188C11.3218 7.70568 11.25 7.88388 11.25 8.09648C11.25 8.30906 11.3219 8.48715 11.4657 8.63075C11.6095 8.77433 11.7877 8.84613 12.0003 8.84613Z" fill="currentColor"/>
</svg>