<svg width=" 100%" height=" 100%" viewBox="0 0 24 25" fill="none" xmlns="http://www.w3.org/2000/svg">
<path d="M9.54972 15.3749L18.0247 6.89991C18.2247 6.69991 18.4622 6.59991 18.7372 6.59991C19.0122 6.59991 19.2497 6.69991 19.4497 6.89991C19.6497 7.09991 19.7497 7.33741 19.7497 7.61241C19.7497 7.88741 19.6497 8.12491 19.4497 8.32491L10.2497 17.5249C10.0497 17.7249 9.81639 17.8249 9.54972 17.8249C9.28305 17.8249 9.04972 17.7249 8.84972 17.5249L4.54972 13.2249C4.34972 13.0249 4.25389 12.7874 4.26222 12.5124C4.27055 12.2374 4.37472 11.9999 4.57472 11.7999C4.77472 11.5999 5.01222 11.4999 5.28722 11.4999C5.56222 11.4999 5.79972 11.5999 5.99972 11.7999L9.54972 15.3749Z" fill="currentColor"/>
</svg>