<svg width=" 100%" height=" 100%" viewBox="0 0 19 18" fill="none" xmlns="http://www.w3.org/2000/svg">
<path d="M11.7687 14.1938V13.3875H10.2124C9.82568 13.3875 9.49462 13.2498 9.21923 12.9745C8.94385 12.6991 8.80615 12.368 8.80615 11.9813V6.00004H7.2499V6.80629C7.2499 7.19301 7.11221 7.52407 6.83682 7.79946C6.56143 8.07484 6.23038 8.21254 5.84365 8.21254H3.55615C3.16943 8.21254 2.83837 8.07484 2.56298 7.79946C2.2876 7.52407 2.1499 7.19301 2.1499 6.80629V3.78754C2.1499 3.40081 2.2876 3.06976 2.56298 2.79437C2.83837 2.51898 3.16943 2.38129 3.55615 2.38129H5.84365C6.23038 2.38129 6.56143 2.51898 6.83682 2.79437C7.11221 3.06976 7.2499 3.40081 7.2499 3.78754V4.59379H11.7687V3.78754C11.7687 3.40081 11.9063 3.06976 12.1817 2.79437C12.4571 2.51898 12.7882 2.38129 13.1749 2.38129H15.4624C15.8491 2.38129 16.1802 2.51898 16.4556 2.79437C16.731 3.06976 16.8687 3.40081 16.8687 3.78754V6.80629C16.8687 7.19301 16.731 7.52407 16.4556 7.79946C16.1802 8.07484 15.8491 8.21254 15.4624 8.21254H13.1749C12.7882 8.21254 12.4571 8.07484 12.1817 7.79946C11.9063 7.52407 11.7687 7.19301 11.7687 6.80629V6.00004H10.2124V11.9813H11.7687V11.175C11.7687 10.7883 11.9063 10.4573 12.1817 10.1819C12.4571 9.90648 12.7882 9.76879 13.1749 9.76879H15.4624C15.8491 9.76879 16.1802 9.90648 16.4556 10.1819C16.731 10.4573 16.8687 10.7883 16.8687 11.175V14.1938C16.8687 14.5805 16.731 14.9116 16.4556 15.187C16.1802 15.4623 15.8491 15.6 15.4624 15.6H13.1749C12.7882 15.6 12.4571 15.4623 12.1817 15.187C11.9063 14.9116 11.7687 14.5805 11.7687 14.1938ZM13.1749 6.80629H15.4624V3.78754H13.1749V6.80629ZM13.1749 14.1938H15.4624V11.175H13.1749V14.1938ZM3.55615 6.80629H5.84365V3.78754H3.55615V6.80629Z" fill="currentColor"/>
</svg>