<svg xmlns="http://www.w3.org/2000/svg" xmlns:xlink="http://www.w3.org/1999/xlink" viewBox="0 0 800 500" width="800" height="500" preserveAspectRatio="xMidYMid meet" style="width: 100%; height: 100%; transform: translate3d(0px, 0px, 0px); content-visibility: visible;"><defs><clipPath id="__lottie_element_2"><rect width="800" height="500" x="0" y="0"/></clipPath></defs><g clip-path="url(#__lottie_element_2)"><g transform="matrix(1,0,0,1,400,250)" opacity="1" style="display: block;"><g opacity="1" transform="matrix(1,0,0,1,0,0)"><path stroke-linecap="round" stroke-linejoin="miter" fill-opacity="0" stroke-miterlimit="10" stroke="rgb(255,255,255)" stroke-opacity="1" stroke-width="60" d=" M-321.9649963378906,-0.33000001311302185 C-321.9649963378906,-0.33000001311302185 280.0729064941406,-0.6621215343475342 280.0729064941406,-0.6621215343475342"/></g></g><g transform="matrix(1,0,0,1,400,250)" opacity="1" style="display: block;"><g opacity="1" transform="matrix(1,0,0,1,0,0)"><path stroke-linecap="round" stroke-linejoin="round" fill-opacity="0" stroke="rgb(255,255,255)" stroke-opacity="1" stroke-width="60" d=" M146.22999572753906,215.2550048828125 C146.22999572753906,215.2550048828125 324.2300109863281,-1.0360000133514404 324.2300109863281,-1.0360000133514404 C324.2300109863281,-1.0360000133514404 146.2050018310547,-215.06100463867188 146.2050018310547,-215.06100463867188"/></g></g><g transform="matrix(1,0,0,1,1063.934814453125,250)" opacity="1" style="display: none;"><g opacity="1" transform="matrix(1,0,0,1,0,0)"><path stroke-linecap="round" stroke-linejoin="miter" fill-opacity="0" stroke-miterlimit="10" stroke="rgb(255,255,255)" stroke-opacity="1" stroke-width="60" d=" M-225.96499633789062,-0.6600000262260437 C-225.96499633789062,-0.6600000262260437 46.007999420166016,-0.6600000262260437 46.007999420166016,-0.6600000262260437"/></g></g><g transform="matrix(1,0,0,1,785.9348754882812,250)" opacity="1" style="display: none;"><g opacity="1" transform="matrix(1,0,0,1,0,0)"><path stroke-linecap="round" stroke-linejoin="round" fill-opacity="0" stroke="rgb(255,255,255)" stroke-opacity="1" stroke-width="60" d=" M168.22999572753906,3.255000114440918 C168.22999572753906,3.255000114440918 324.2300109863281,-1.0360000133514404 324.2300109863281,-1.0360000133514404 C324.2300109863281,-1.0360000133514404 168.83799743652344,-1.694000005722046 168.83799743652344,-1.694000005722046"/></g></g></g></svg>