<svg width=" 100%" height=" 100%" viewBox="0 0 25 24" fill="none" xmlns="http://www.w3.org/2000/svg">
<path d="M19.3191 13.5137H2.4056C1.97677 13.5137 1.61732 13.3686 1.32722 13.0785C1.03713 12.7885 0.89209 12.429 0.89209 12.0002C0.89209 11.5713 1.03713 11.2119 1.32722 10.9218C1.61732 10.6317 1.97677 10.4867 2.4056 10.4867H19.3191L11.9029 3.07044C11.6002 2.76773 11.4552 2.41458 11.4678 2.01098C11.4804 1.60737 11.638 1.25422 11.9407 0.951517C12.2434 0.674039 12.5966 0.528994 13.0002 0.516382C13.4038 0.503769 13.757 0.648814 14.0597 0.951517L24.0488 10.9407C24.2002 11.0921 24.3074 11.256 24.3705 11.4326C24.4335 11.6092 24.4651 11.7984 24.4651 12.0002C24.4651 12.202 24.4335 12.3912 24.3705 12.5677C24.3074 12.7443 24.2002 12.9083 24.0488 13.0596L14.0597 23.0488C13.7822 23.3263 13.4353 23.465 13.0191 23.465C12.6029 23.465 12.2434 23.3263 11.9407 23.0488C11.638 22.7461 11.4867 22.3867 11.4867 21.9704C11.4867 21.5542 11.638 21.1948 11.9407 20.8921L19.3191 13.5137Z" fill="currentColor"/>
</svg>