<svg width="100" height="100" viewBox="0 0 100 100" fill="none" xmlns="http://www.w3.org/2000/svg">
<rect width="100" height="100" rx="4" fill="#C4E695"/>
<rect x="18.5" y="8" width="62" height="84.5" stroke="black"/>
<rect x="7.5" y="8" width="84" height="85" stroke="black"/>
<rect x="18.5" y="30.5" width="62" height="47" stroke="black"/>
<path d="M37 29.5L30.5 24L29 30L22 32L28.5 39L35 37L37 29.5Z" fill="#C4E595" stroke="black" stroke-width="0.5"/>
<path d="M34.1774 41.0445C27.7955 49.7861 28.55 62.1133 36.4438 70.0071C45.1719 78.7352 59.3242 78.7352 68.0523 70.0071C76.7804 61.279 76.7804 47.1267 68.0523 38.3986C60.1599 30.5063 47.8313 29.7504 39.0896 36.1323M38.5927 45.4597C34.5675 51.7347 35.2963 60.1767 40.7837 65.6641C47.1145 71.9949 57.3786 71.9949 63.7078 65.6641C70.0385 59.3334 70.0385 49.0693 63.7078 42.7386C58.2204 37.2512 49.7784 36.5223 43.5034 40.5475M43.1043 49.9729C41.3816 53.6954 42.0562 58.2537 45.1252 61.3227C49.0571 65.2546 55.433 65.2546 59.3663 61.3227C63.2982 57.3908 63.2982 51.0149 59.3663 47.0816C56.2973 44.0126 51.739 43.338 48.0165 45.0607M48.4893 55.3579C48.6715 55.9512 48.9968 56.5099 49.4667 56.9797C51.0012 58.5142 53.4889 58.5142 55.0234 56.9797C56.5579 55.4452 56.5579 52.9575 55.0234 51.423C54.5535 50.9532 53.9949 50.6279 53.4015 50.4457M51.9514 53.9996L24.0308 26.079M33.5043 36.6729L27.8557 38.4483L21.2705 31.8631L26.9191 30.0877M34.5238 35.6549L36.2993 30.0064L29.714 23.4211L27.9386 29.0697" stroke="black" stroke-width="2.10824" stroke-linecap="round" stroke-linejoin="round"/>
<circle cx="50" cy="15" r="2.5" stroke="black"/>
</svg>
