<svg width="100" height="100" viewBox="0 0 100 100" fill="none" xmlns="http://www.w3.org/2000/svg">
<rect width="100" height="100" rx="8" fill="#007F42"/>
<path d="M63.8003 35.0476L69.5784 29.2696L61.5912 21.2823L38.2154 44.6582L46.2026 52.6454L54.5753 44.2726M44.4076 50.8533L40.9772 54.0142L36.8481 49.8836L40.2393 46.6821M31.4977 59.5498H41.6337M64.5849 43.1688C68.9294 49.742 68.2984 56.3031 65.0908 62.8055H65.7986C68.1885 62.8055 70.1446 64.6277 70.1446 66.8473V68.6664H25.9395V66.8473C25.9395 64.6247 27.8956 62.8055 30.2854 62.8055H55.649C59.4258 57.2729 60.9286 51.9903 58.7692 45.8839M58.9785 33.2526C62.4104 33.2526 65.1933 36.034 65.1933 39.4674C65.1933 42.9008 62.4104 45.6822 58.9785 45.6822C55.5466 45.6822 52.7637 42.8993 52.7637 39.4674C52.7637 36.0355 55.5466 33.2526 58.9785 33.2526ZM58.9996 36.6168C60.6169 36.6168 61.9285 37.9284 61.9285 39.5457C61.9285 41.163 60.6169 42.4746 58.9996 42.4746C57.3823 42.4746 56.0706 41.163 56.0706 39.5457C56.0706 37.9284 57.3823 36.6168 58.9996 36.6168Z" stroke="#F7F4EB" stroke-width="2.10824" stroke-linecap="round" stroke-linejoin="round"/>
<rect x="88.5" y="69.5" width="21" height="78" transform="rotate(90 88.5 69.5)" stroke="#F7F4EB"/>
<rect x="-0.5" y="-0.5" width="59" height="78" transform="matrix(3.19929e-07 -1 -1 -5.97222e-09 88 69)" stroke="#F7F4EB"/>
<path d="M63 11L63 22.2653M36 11L36 15.5L36 59" stroke="#F7F4EB"/>
<rect x="68.5" y="69.5" width="21" height="45" transform="rotate(90 68.5 69.5)" stroke="#F7F4EB"/>
</svg>
