<svg width="32" height="33" viewBox="0 0 32 33" fill="none" xmlns="http://www.w3.org/2000/svg">
<path d="M25.6001 25.6063V18.5727C25.6001 15.1187 24.8557 12.4632 20.8273 12.4632C18.8916 12.4632 17.5934 13.5265 17.0629 14.5347H17.0084V12.7814H13.1946V25.6063H17.1684V19.2631C17.1684 17.59 17.4843 15.9691 19.5546 15.9691C21.5964 15.9691 21.6219 17.8824 21.6219 19.3696V25.6063H25.6001ZM10.6986 12.7814H6.71595V25.6063H10.6986V12.7814ZM8.70832 6.40625C7.43051 6.40625 6.40015 7.44185 6.40015 8.71764C6.40015 9.99374 7.43051 11.0293 8.70832 11.0293C9.98111 11.0293 11.0144 9.99374 11.0144 8.71764C11.0144 7.44185 9.98111 6.40625 8.70832 6.40625Z" fill="#FDF9FF"/>
</svg>
