<svg width=" 100%" height=" 100%" viewBox="0 0 16 16" fill="none" xmlns="http://www.w3.org/2000/svg">
<path d="M4.66659 9.33335V13.3334C4.66659 13.5222 4.6027 13.6806 4.47492 13.8084C4.34714 13.9361 4.18881 14 3.99992 14C3.81103 14 3.6527 13.9361 3.52492 13.8084C3.39714 13.6806 3.33325 13.5222 3.33325 13.3334V3.33335C3.33325 3.14446 3.39714 2.98613 3.52492 2.85835C3.6527 2.73058 3.81103 2.66669 3.99992 2.66669H8.78325C8.93881 2.66669 9.0777 2.71669 9.19992 2.81669C9.32214 2.91669 9.39992 3.04446 9.43325 3.20002L9.59992 4.00002H12.6666C12.8555 4.00002 13.0138 4.06391 13.1416 4.19169C13.2694 4.31946 13.3333 4.4778 13.3333 4.66669V10C13.3333 10.1889 13.2694 10.3472 13.1416 10.475C13.0138 10.6028 12.8555 10.6667 12.6666 10.6667H9.21659C9.06103 10.6667 8.92214 10.6167 8.79992 10.5167C8.6777 10.4167 8.59992 10.2889 8.56659 10.1334L8.39992 9.33335H4.66659ZM9.76659 9.33335H11.9999V5.33335H9.04992C8.89436 5.33335 8.75547 5.28335 8.63325 5.18335C8.51103 5.08335 8.43325 4.95558 8.39992 4.80002L8.23325 4.00002H4.66659V8.00002H8.94992C9.10547 8.00002 9.24436 8.05002 9.36659 8.15002C9.48881 8.25002 9.56659 8.3778 9.59992 8.53335L9.76659 9.33335Z" fill="currentColor"/>
</svg>