<svg width="100" height="100" viewBox="0 0 100 100" fill="none" xmlns="http://www.w3.org/2000/svg">
<rect width="100" height="100" rx="4" fill="#E5FBF0"/>
<path d="M50.104 56.1455L50.0935 73.4225C50.092 76.9839 56.6049 76.9418 56.5688 73.3683L56.4468 63.9309L56.2932 44.3816M56.4679 54.3761C57.3759 56.8955 58.7387 57.2117 59.6995 56.6365C61.2807 55.6862 60.7295 53.697 60.6648 52.1278L60.1724 40.2464C60.0082 36.2905 40.6938 36.5856 40.0688 40.2073C39.5568 42.4495 39.4861 47.571 39.4273 51.4351C39.3987 53.3205 38.7346 57.1801 41.4618 56.8804C42.2494 56.8262 43.1062 56.141 43.7417 54.3776M43.9163 44.3831L43.7628 63.9325L43.6408 73.3698C43.6046 76.9433 50.095 76.996 50.092 73.424M33.958 59.2296L33.9474 73.1003C33.9459 76.2973 39.9529 76.2551 39.9198 73.0521L39.8113 63.2141L39.7887 61.761M34.6702 41.4316C30.136 41.412 25.4181 42.2929 25.1305 43.9614C24.6712 45.9718 24.6094 48.7878 24.5567 52.2513C24.5311 53.9424 23.9348 57.4014 26.3788 57.1319C27.0836 57.0837 27.8531 56.4693 28.4223 54.8881M28.5789 47.5756L28.4419 63.2141L28.3335 73.0521C28.3003 76.2551 33.9504 76.3018 33.9489 73.1003M65.9037 59.2296L65.8947 73.552C65.8932 76.7505 71.9002 76.7069 71.867 73.5038L71.7586 63.2141L71.62 47.5756M71.7767 54.5192C72.5913 56.778 73.8111 57.0626 74.6725 56.5446C76.091 55.6923 75.6107 53.9093 75.5369 52.5028L75.0956 43.9961C74.9932 42.0234 69.6052 41.2298 64.7412 41.4737M60.4389 62.0561L60.3862 63.2126L60.2778 73.5023C60.2446 76.7053 65.8947 76.752 65.8932 73.5505M49.9564 24.0236C52.5737 24.0236 54.6939 26.2613 54.6939 29.0216C54.6939 30.8859 53.7257 32.5122 52.2906 33.3721C51.5858 33.8088 50.7666 34.0603 49.8902 34.0603C47.2745 34.0603 45.1527 31.8225 45.1527 29.0622C45.1527 27.198 46.1195 25.5716 47.5546 24.7117C48.2593 24.2735 49.08 24.0236 49.9564 24.0236V24.0236ZM33.9956 29.1993C36.3403 29.1993 38.2422 31.2051 38.2422 33.6808C38.2422 35.3523 37.3748 36.81 36.0873 37.581C35.4563 37.9726 34.7215 38.1984 33.9354 38.1984C31.5907 38.1984 29.6888 36.1926 29.6888 33.7169C29.6888 32.0454 30.5562 30.5877 31.8422 29.8182C32.4731 29.4252 33.2095 29.2008 33.9941 29.2008L33.9956 29.1993ZM65.9399 29.1978C68.2846 29.1978 70.1864 31.2036 70.1864 33.6793C70.1864 35.3508 69.319 36.8085 68.0315 37.5795C67.4006 37.971 66.6658 38.1969 65.8797 38.1969C63.535 38.1969 61.6331 36.1911 61.6331 33.7154C61.6331 32.0439 62.5004 30.5862 63.7864 29.8167C64.4174 29.4237 65.1538 29.1993 65.9384 29.1993L65.9399 29.1978Z" stroke="black" stroke-width="2.10824" stroke-linecap="round" stroke-linejoin="round"/>
<rect x="-0.5" y="-0.5" width="78" height="78" transform="matrix(3.19929e-07 -1 -1 -5.97222e-09 88 88)" stroke="black"/>
<rect x="-0.5" y="-0.5" width="90" height="90" transform="matrix(3.19929e-07 -1 -1 -5.97222e-09 94 94)" stroke="black"/>
<rect x="-0.5" y="-0.5" width="78" height="78" rx="19.5" transform="matrix(3.19929e-07 -1 -1 -5.97222e-09 88 88)" stroke="black"/>
<path d="M10.5 10.5L1 1" stroke="black"/>
<path d="M88.5 88L98 97.5" stroke="black"/>
<path d="M88.5 10.5L98 1" stroke="black"/>
<path d="M10.5 88L1 97.5" stroke="black"/>
</svg>
