<svg width=" 100%" height=" 100%" viewBox="0 0 19 18" fill="none" xmlns="http://www.w3.org/2000/svg">
<path d="M8.75 13.5C7.9625 13.5 7.22813 13.3625 6.54688 13.0875C5.86563 12.8125 5.2625 12.4375 4.7375 11.9625C4.5875 11.825 4.51875 11.6594 4.53125 11.4656C4.54375 11.2719 4.63125 11.1063 4.79375 10.9688C4.95625 10.8313 5.14375 10.7656 5.35625 10.7719C5.56875 10.7781 5.75625 10.85 5.91875 10.9875C6.31875 11.3125 6.75313 11.5625 7.22188 11.7375C7.69063 11.9125 8.2 12 8.75 12C10 12 11.0625 11.5625 11.9375 10.6875C12.8125 9.8125 13.25 8.75 13.25 7.5C13.25 6.25 12.8125 5.1875 11.9375 4.3125C11.0625 3.4375 10 3 8.75 3C7.7125 3 6.79688 3.3125 6.00313 3.9375C5.20938 4.5625 4.68125 5.35625 4.41875 6.31875C4.35625 6.53125 4.24375 6.71875 4.08125 6.88125C3.91875 7.04375 3.73125 7.125 3.51875 7.125C3.30625 7.125 3.13438 7.04063 3.00313 6.87188C2.87188 6.70312 2.83125 6.5125 2.88125 6.3C3.16875 4.925 3.85313 3.78125 4.93438 2.86875C6.01562 1.95625 7.2875 1.5 8.75 1.5C10.425 1.5 11.8438 2.08125 13.0063 3.24375C14.1688 4.40625 14.75 5.825 14.75 7.5C14.75 8.2 14.6375 8.85938 14.4125 9.47813C14.1875 10.0969 13.875 10.6625 13.475 11.175L16.475 14.175C16.6125 14.3125 16.6813 14.4875 16.6813 14.7C16.6813 14.9125 16.6125 15.0875 16.475 15.225C16.3375 15.3625 16.1625 15.4313 15.95 15.4313C15.7375 15.4313 15.5625 15.3625 15.425 15.225L12.425 12.225C11.9125 12.625 11.3469 12.9375 10.7281 13.1625C10.1094 13.3875 9.45 13.5 8.75 13.5ZM8.50625 8.5125L9.2 6.35625C9.2375 6.25625 9.29688 6.17188 9.37813 6.10313C9.45938 6.03438 9.55625 6 9.66875 6H10.1188C10.2188 6 10.3063 6.025 10.3813 6.075C10.4563 6.125 10.5188 6.19375 10.5688 6.28125L11.5625 8.25C11.725 8.25 11.8594 8.30313 11.9656 8.40938C12.0719 8.51563 12.125 8.65 12.125 8.8125C12.125 8.975 12.0719 9.10938 11.9656 9.21563C11.8594 9.32188 11.725 9.375 11.5625 9.375H11.225C11.125 9.375 11.0281 9.34688 10.9344 9.29063C10.8406 9.23438 10.7688 9.15625 10.7188 9.05625L9.9875 7.6125L9.1625 10.1438C9.125 10.2563 9.0625 10.3438 8.975 10.4062C8.8875 10.4688 8.7875 10.5 8.675 10.5H8.3375C8.225 10.5 8.12188 10.4656 8.02813 10.3969C7.93438 10.3281 7.86875 10.2375 7.83125 10.125L6.7625 6.6L5.91875 9C5.88125 9.1125 5.81563 9.20313 5.72188 9.27188C5.62813 9.34063 5.51875 9.375 5.39375 9.375H2.5625C2.4 9.375 2.26562 9.32188 2.15938 9.21563C2.05313 9.10938 2 8.975 2 8.8125C2 8.65 2.05313 8.51563 2.15938 8.40938C2.26562 8.30313 2.4 8.25 2.5625 8.25H5L6.10625 5.04375C6.14375 4.93125 6.20938 4.84375 6.30313 4.78125C6.39688 4.71875 6.5 4.6875 6.6125 4.6875H6.96875C7.09375 4.6875 7.2 4.725 7.2875 4.8C7.375 4.875 7.4375 4.96875 7.475 5.08125L8.50625 8.5125Z" fill="currentColor"/>
</svg>