<svg width=" 100%" height=" 100%" viewBox="0 0 17 17" fill="none" xmlns="http://www.w3.org/2000/svg">
<path d="M8.50016 14.0501C8.34461 14.0501 8.18627 14.0223 8.02516 13.9667C7.86405 13.9112 7.72238 13.8223 7.60016 13.7001L6.45016 12.6501C5.27238 11.5723 4.2085 10.5028 3.2585 9.44172C2.3085 8.38061 1.8335 7.21117 1.8335 5.93339C1.8335 4.88895 2.1835 4.01672 2.8835 3.31672C3.5835 2.61672 4.45572 2.26672 5.50016 2.26672C6.08905 2.26672 6.64461 2.39172 7.16683 2.64172C7.68905 2.89172 8.1335 3.23339 8.50016 3.66672C8.86683 3.23339 9.31127 2.89172 9.8335 2.64172C10.3557 2.39172 10.9113 2.26672 11.5002 2.26672C12.5446 2.26672 13.4168 2.61672 14.1168 3.31672C14.8168 4.01672 15.1668 4.88895 15.1668 5.93339C15.1668 7.21117 14.6946 8.38339 13.7502 9.45006C12.8057 10.5167 11.7335 11.5889 10.5335 12.6667L9.40016 13.7001C9.27794 13.8223 9.13627 13.9112 8.97516 13.9667C8.81405 14.0223 8.65572 14.0501 8.50016 14.0501ZM7.86683 5.00006C7.54461 4.5445 7.20016 4.19728 6.8335 3.95839C6.46683 3.7195 6.02238 3.60006 5.50016 3.60006C4.8335 3.60006 4.27794 3.82228 3.8335 4.26672C3.38905 4.71117 3.16683 5.26672 3.16683 5.93339C3.16683 6.51117 3.37238 7.12506 3.7835 7.77506C4.19461 8.42506 4.68627 9.05561 5.2585 9.66672C5.83072 10.2778 6.41961 10.8501 7.02516 11.3834C7.63072 11.9167 8.12238 12.3556 8.50016 12.7001C8.87794 12.3556 9.36961 11.9167 9.97516 11.3834C10.5807 10.8501 11.1696 10.2778 11.7418 9.66672C12.3141 9.05561 12.8057 8.42506 13.2168 7.77506C13.6279 7.12506 13.8335 6.51117 13.8335 5.93339C13.8335 5.26672 13.6113 4.71117 13.1668 4.26672C12.7224 3.82228 12.1668 3.60006 11.5002 3.60006C10.9779 3.60006 10.5335 3.7195 10.1668 3.95839C9.80016 4.19728 9.45572 4.5445 9.1335 5.00006C9.05572 5.11117 8.96127 5.1945 8.85016 5.25006C8.73905 5.30561 8.62238 5.33339 8.50016 5.33339C8.37794 5.33339 8.26127 5.30561 8.15016 5.25006C8.03905 5.1945 7.94461 5.11117 7.86683 5.00006Z" fill="currentColor"/>
</svg>