<svg width=" 100%" height=" 100%" viewBox="0 0 19 18" fill="none" xmlns="http://www.w3.org/2000/svg">
<path d="M9.5 15.75C7.6125 15.75 6.01562 15.4594 4.70938 14.8781C3.40313 14.2969 2.75 13.5875 2.75 12.75V5.25C2.75 4.425 3.40937 3.71875 4.72813 3.13125C6.04688 2.54375 7.6375 2.25 9.5 2.25C11.3625 2.25 12.9531 2.54375 14.2719 3.13125C15.5906 3.71875 16.25 4.425 16.25 5.25V12.75C16.25 13.5875 15.5969 14.2969 14.2906 14.8781C12.9844 15.4594 11.3875 15.75 9.5 15.75ZM9.5 6.76875C10.6125 6.76875 11.7313 6.60938 12.8563 6.29063C13.9813 5.97188 14.6125 5.63125 14.75 5.26875C14.6125 4.90625 13.9844 4.5625 12.8656 4.2375C11.7469 3.9125 10.625 3.75 9.5 3.75C8.3625 3.75 7.24688 3.90938 6.15313 4.22813C5.05938 4.54688 4.425 4.89375 4.25 5.26875C4.425 5.64375 5.05938 5.9875 6.15313 6.3C7.24688 6.6125 8.3625 6.76875 9.5 6.76875ZM9.5 10.5C10.025 10.5 10.5313 10.475 11.0188 10.425C11.5063 10.375 11.9719 10.3031 12.4156 10.2094C12.8594 10.1156 13.2781 10 13.6719 9.8625C14.0656 9.725 14.425 9.56875 14.75 9.39375V7.14375C14.425 7.31875 14.0656 7.475 13.6719 7.6125C13.2781 7.75 12.8594 7.86563 12.4156 7.95938C11.9719 8.05313 11.5063 8.125 11.0188 8.175C10.5313 8.225 10.025 8.25 9.5 8.25C8.975 8.25 8.4625 8.225 7.9625 8.175C7.4625 8.125 6.99063 8.05313 6.54688 7.95938C6.10313 7.86563 5.6875 7.75 5.3 7.6125C4.9125 7.475 4.5625 7.31875 4.25 7.14375V9.39375C4.5625 9.56875 4.9125 9.725 5.3 9.8625C5.6875 10 6.10313 10.1156 6.54688 10.2094C6.99063 10.3031 7.4625 10.375 7.9625 10.425C8.4625 10.475 8.975 10.5 9.5 10.5ZM9.5 14.25C10.075 14.25 10.6594 14.2063 11.2531 14.1188C11.8469 14.0312 12.3938 13.9156 12.8938 13.7719C13.3938 13.6281 13.8125 13.4656 14.15 13.2844C14.4875 13.1031 14.6875 12.9188 14.75 12.7313V10.8938C14.425 11.0688 14.0656 11.225 13.6719 11.3625C13.2781 11.5 12.8594 11.6156 12.4156 11.7094C11.9719 11.8031 11.5063 11.875 11.0188 11.925C10.5313 11.975 10.025 12 9.5 12C8.975 12 8.4625 11.975 7.9625 11.925C7.4625 11.875 6.99063 11.8031 6.54688 11.7094C6.10313 11.6156 5.6875 11.5 5.3 11.3625C4.9125 11.225 4.5625 11.0688 4.25 10.8938V12.75C4.3125 12.9375 4.50938 13.1188 4.84063 13.2938C5.17188 13.4688 5.5875 13.6281 6.0875 13.7719C6.5875 13.9156 7.1375 14.0312 7.7375 14.1188C8.3375 14.2063 8.925 14.25 9.5 14.25Z" fill="currentColor"/>
</svg>