<svg width=" 100%" height=" 100%" viewBox="0 0 21 20" fill="none" xmlns="http://www.w3.org/2000/svg">
<circle cx="10.5" cy="10" r="7" stroke="currentColor"/>
<path d="M13.5 10C13.5 12.0149 13.1179 13.8146 12.5218 15.0919C11.9068 16.4097 11.1568 17 10.5 17C9.84315 17 9.09323 16.4097 8.47822 15.0919C7.88215 13.8146 7.5 12.0149 7.5 10C7.5 7.98515 7.88215 6.18543 8.47822 4.90814C9.09323 3.59025 9.84315 3 10.5 3C11.1568 3 11.9068 3.59025 12.5218 4.90814C13.1179 6.18543 13.5 7.98515 13.5 10Z" stroke="currentColor"/>
<path d="M10.5 13C8.48515 13 6.68543 12.6179 5.40814 12.0218C4.09025 11.4068 3.5 10.6568 3.5 10C3.5 9.34315 4.09025 8.59323 5.40814 7.97822C6.68543 7.38215 8.48515 7 10.5 7C12.5149 7 14.3146 7.38215 15.5919 7.97822C16.9097 8.59323 17.5 9.34315 17.5 10C17.5 10.6568 16.9097 11.4068 15.5919 12.0218C14.3146 12.6179 12.5149 13 10.5 13Z" stroke="currentColor"/>
</svg>