<svg width="114" height="30" viewBox="0 0 114 30" fill="none" xmlns="http://www.w3.org/2000/svg">
<path d="M6.56668 4.30415L7.43008 6.9065C8.18403 5.9215 9.07175 5.15539 10.1054 4.60817C11.139 4.06094 12.4159 3.78125 13.9481 3.78125C15.8573 3.78125 17.6206 4.27983 19.2258 5.26483C20.831 6.24983 22.1078 7.61181 23.0442 9.35077C23.9805 11.0897 24.4548 13.0111 24.4548 15.127C24.4548 17.2429 23.9805 19.1521 23.0442 20.8668C22.1078 22.5814 20.831 23.9191 19.2258 24.9041C17.6206 25.8891 15.8573 26.3876 13.9481 26.3876C11.1634 26.3876 8.99878 25.4513 7.43008 23.5664V29.9993H0V4.30415H6.56668ZM15.5168 18.532C16.441 17.6199 16.9031 16.4768 16.9031 15.1149C16.9031 13.7529 16.4289 12.5976 15.4925 11.6613C14.5561 10.7249 13.3887 10.2506 11.9903 10.2506C10.5796 10.2506 9.40008 10.7249 8.47588 11.6734C7.55168 12.6098 7.08958 13.7529 7.08958 15.0905C7.08958 16.4768 7.55168 17.6321 8.47588 18.5441C9.40008 19.4562 10.5796 19.9183 11.9903 19.9183C13.4131 19.9061 14.5926 19.444 15.5168 18.532Z" fill="white"/>
<path d="M25.8535 0H33.2836V25.8533H25.8535V0Z" fill="white"/>
<path d="M53.6894 6.04672C55.6473 7.55462 56.6201 9.74351 56.6201 12.6134V25.8684H50.4912L49.5305 22.9134C48.0834 25.236 45.8337 26.3913 42.7936 26.3913C40.1304 26.3913 38.1118 25.7954 36.7255 24.6037C35.3514 23.4119 34.6582 21.8797 34.6582 19.9948C34.6582 18.0248 35.4243 16.4318 36.9444 15.2157C38.4644 13.9997 40.8357 13.3917 44.0461 13.3917H49.1779V12.6134C49.1779 11.6284 48.8617 10.8988 48.2172 10.4367C47.5848 9.97456 46.7822 9.74351 45.8216 9.74351C44.8974 9.74351 44.1191 9.92592 43.4989 10.2907C42.8787 10.6556 42.4896 11.1906 42.3437 11.9202H35.2541C35.3757 10.3272 35.8864 8.9166 36.7985 7.68838C37.7105 6.46017 38.9509 5.49949 40.5196 4.8185C42.0883 4.13751 43.8637 3.79702 45.8702 3.79702C49.1414 3.78486 51.7437 4.53881 53.6894 6.04672ZM48.8009 17.5141H44.9825C44.2042 17.5141 43.5962 17.6722 43.1827 17.9883C42.7571 18.3045 42.5504 18.7301 42.5504 19.253C42.5504 19.7759 42.7571 20.1651 43.1827 20.4326C43.6083 20.688 44.1434 20.8217 44.8122 20.8217C46.8674 20.8217 48.1929 19.7151 48.8009 17.5141Z" fill="white"/>
<path d="M78.9459 6.47307C80.3808 8.27283 81.0983 10.8265 81.0983 14.122V25.8569H73.7047V14.7787C73.7047 13.21 73.4129 12.0304 72.817 11.2157C72.2211 10.4009 71.2483 9.99962 69.8863 9.99962C68.6459 9.99962 67.6366 10.4252 66.8705 11.2765C66.1044 12.1277 65.7152 13.2951 65.7152 14.7787V25.8569H58.2852V4.3085H64.7546L65.3626 7.73777C66.0922 6.52171 67.0529 5.56103 68.269 4.84356C69.485 4.13825 70.9321 3.77344 72.6103 3.77344C75.395 3.7856 77.511 4.68548 78.9459 6.47307Z" fill="white"/>
<path d="M106.028 25.8533L103.9 19.5906H93.1257L90.9976 25.8533H83.2148L92.6028 0H104.52L113.908 25.8533H106.028ZM95.0835 13.863H101.991L98.5128 3.64816L95.0835 13.863Z" fill="#00AA58"/>
</svg>
