<svg width=" 100%" height=" 100%" viewBox="0 0 18 18" fill="none" xmlns="http://www.w3.org/2000/svg">
<path d="M7.91249 13.65L11.7937 9.00001H8.79374L9.33749 4.74376L5.86874 9.75001H8.47499L7.91249 13.65ZM7.18272 10.875H4.90098C4.64906 10.875 4.46445 10.7635 4.34714 10.5404C4.22984 10.3173 4.24426 10.1024 4.39041 9.89568L9.3043 2.8068C9.40526 2.66546 9.53411 2.56883 9.69083 2.5169C9.84757 2.46498 10.0106 2.46931 10.1798 2.5299C10.349 2.59047 10.4728 2.69407 10.5512 2.8407C10.6295 2.98733 10.6586 3.14526 10.6384 3.31449L10.0745 7.87503H12.8725C13.1399 7.87503 13.3283 7.99475 13.4379 8.23417C13.5475 8.4736 13.5153 8.69667 13.3413 8.9034L7.90818 15.411C7.79953 15.5399 7.66683 15.6233 7.5101 15.6613C7.35337 15.6992 7.20049 15.6841 7.05145 15.6158C6.90242 15.5476 6.7868 15.4432 6.7046 15.3028C6.62238 15.1625 6.59137 15.0077 6.61156 14.8384L7.18272 10.875Z" fill="currentColor"/>
</svg>