<svg width="32" height="33" viewBox="0 0 32 33" fill="none" xmlns="http://www.w3.org/2000/svg">
<path d="M16 6.40625C13.3928 6.40625 13.0659 6.4173 12.042 6.46402C11.0201 6.51066 10.3223 6.67292 9.71162 6.91026C9.08034 7.15559 8.54497 7.48385 8.01128 8.01754C7.47758 8.55123 7.14933 9.0866 6.90399 9.71789C6.66666 10.3285 6.5044 11.0264 6.45776 12.0482C6.41104 13.0721 6.40002 13.399 6.40002 16.0063C6.40002 18.6135 6.41104 18.9404 6.45776 19.9643C6.5044 20.9861 6.66666 21.684 6.90399 22.2946C7.14933 22.9259 7.47758 23.4613 8.01128 23.995C8.54497 24.5287 9.08034 24.8569 9.71162 25.1023C10.3223 25.3396 11.0201 25.5019 12.042 25.5485C13.0659 25.5952 13.3928 25.6063 16 25.6063C18.6072 25.6063 18.9342 25.5952 19.9581 25.5485C20.9799 25.5019 21.6778 25.3396 22.2884 25.1023C22.9197 24.8569 23.455 24.5287 23.9888 23.995C24.5225 23.4613 24.8507 22.9259 25.0961 22.2946C25.3333 21.684 25.4956 20.9861 25.5423 19.9643C25.589 18.9404 25.6 18.6135 25.6 16.0063C25.6 13.399 25.589 13.0721 25.5423 12.0482C25.4956 11.0264 25.3333 10.3285 25.0961 9.71789C24.8507 9.0866 24.5225 8.55123 23.9888 8.01754C23.455 7.48385 22.9197 7.15559 22.2884 6.91026C21.6778 6.67292 20.9799 6.51066 19.9581 6.46402C18.9342 6.4173 18.6072 6.40625 16 6.40625ZM16 8.13601C18.5633 8.13601 18.867 8.14577 19.8792 8.19196C20.8152 8.23467 21.3236 8.39107 21.6618 8.5225C22.1099 8.69665 22.4297 8.90471 22.7656 9.24063C23.1016 9.57655 23.3096 9.89638 23.4838 10.3444C23.6152 10.6827 23.7716 11.191 23.8143 12.127C23.8605 13.1393 23.8703 13.4429 23.8703 16.0063C23.8703 18.5696 23.8605 18.8732 23.8143 19.8855C23.7716 20.8215 23.6152 21.3298 23.4838 21.6681C23.3096 22.1162 23.1016 22.436 22.7656 22.7719C22.4297 23.1078 22.1099 23.3159 21.6618 23.49C21.3236 23.6215 20.8152 23.7779 19.8792 23.8205C18.8671 23.8667 18.5635 23.8765 16 23.8765C13.4365 23.8765 13.133 23.8667 12.1208 23.8205C11.1848 23.7779 10.6765 23.6215 10.3382 23.49C9.89012 23.3159 9.57032 23.1078 9.23437 22.7719C8.89845 22.436 8.69039 22.1162 8.51627 21.6681C8.3848 21.3298 8.22841 20.8215 8.18569 19.8855C8.13951 18.8732 8.12975 18.5696 8.12975 16.0063C8.12975 13.4429 8.13951 13.1393 8.18569 12.127C8.22841 11.191 8.3848 10.6827 8.51627 10.3444C8.69039 9.89638 8.89845 9.57655 9.23437 9.24063C9.57032 8.90471 9.89012 8.69665 10.3382 8.5225C10.6765 8.39107 11.1848 8.23467 12.1208 8.19196C13.1331 8.14577 13.4367 8.13601 16 8.13601Z" fill="#FDF9FF"/>
<path d="M15.9988 19.2079C14.2315 19.2079 12.7988 17.7752 12.7988 16.0079C12.7988 14.2405 14.2315 12.8079 15.9988 12.8079C17.7661 12.8079 19.1988 14.2405 19.1988 16.0079C19.1988 17.7752 17.7661 19.2079 15.9988 19.2079ZM15.9988 11.0781C13.2762 11.0781 11.0691 13.2852 11.0691 16.0079C11.0691 18.7305 13.2762 20.9376 15.9988 20.9376C18.7214 20.9376 20.9285 18.7305 20.9285 16.0079C20.9285 13.2852 18.7214 11.0781 15.9988 11.0781Z" fill="#FDF9FF"/>
<path d="M22.2776 10.8825C22.2776 11.5187 21.7619 12.0344 21.1256 12.0344C20.4894 12.0344 19.9736 11.5187 19.9736 10.8825C19.9736 10.2462 20.4894 9.73047 21.1256 9.73047C21.7619 9.73047 22.2776 10.2462 22.2776 10.8825Z" fill="#FDF9FF"/>
</svg>
