<svg width=" 100%" height=" 100%" viewBox="0 0 15 14" fill="none" xmlns="http://www.w3.org/2000/svg">
<path d="M5.06936 7.67173L4.62852 8.27849L5.06936 7.67173L2.67534 5.93237H5.63451C6.06773 5.93237 6.45169 5.65341 6.58557 5.24139L5.87227 5.00963L6.58557 5.24139L7.5 2.42705L8.41443 5.24139C8.54831 5.65341 8.93226 5.93237 9.36549 5.93237H12.3247L9.93064 7.67173C9.58016 7.92637 9.4335 8.37774 9.56737 8.78976L10.2807 8.558L9.56737 8.78976L10.4818 11.6041L8.08779 9.86475C7.7373 9.6101 7.2627 9.6101 6.91221 9.86475L4.5182 11.6041L5.43263 8.78976L4.71934 8.558L5.43263 8.78976C5.5665 8.37774 5.41985 7.92638 5.06936 7.67173Z" stroke="currentColor" stroke-width="1.5"/>
</svg>