<svg width="114" height="31" viewBox="0 0 114 31" fill="none" xmlns="http://www.w3.org/2000/svg">
<path d="M6.56668 4.31196L7.43008 6.91431C8.18403 5.92931 9.07175 5.1632 10.1054 4.61598C11.139 4.06875 12.4159 3.78906 13.9481 3.78906C15.8573 3.78906 17.6206 4.28764 19.2258 5.27265C20.831 6.25765 22.1078 7.61963 23.0442 9.35858C23.9805 11.0975 24.4548 13.0189 24.4548 15.1348C24.4548 17.2508 23.9805 19.16 23.0442 20.8746C22.1078 22.5892 20.831 23.9269 19.2258 24.9119C17.6206 25.8969 15.8573 26.3955 13.9481 26.3955C11.1634 26.3955 8.99878 25.4591 7.43008 23.5742V30.0071H0V4.31196H6.56668ZM15.5168 18.5398C16.441 17.6277 16.9031 16.4846 16.9031 15.1227C16.9031 13.7607 16.4289 12.6054 15.4925 11.6691C14.5561 10.7327 13.3887 10.2585 11.9903 10.2585C10.5796 10.2585 9.40008 10.7327 8.47588 11.6812C7.55168 12.6176 7.08958 13.7607 7.08958 15.0983C7.08958 16.4846 7.55168 17.6399 8.47588 18.5519C9.40008 19.464 10.5796 19.9261 11.9903 19.9261C13.4131 19.9139 14.5926 19.4518 15.5168 18.5398Z" fill="#FDF9FF"/>
<path d="M25.8533 0.0078125H33.2833V25.8611H25.8533V0.0078125Z" fill="#FDF9FF"/>
<path d="M53.6887 6.05062C55.6465 7.55853 56.6194 9.74742 56.6194 12.6173V25.8723H50.4905L49.5298 22.9173C48.0827 25.2399 45.833 26.3952 42.7929 26.3952C40.1297 26.3952 38.1111 25.7993 36.7248 24.6076C35.3506 23.4158 34.6575 21.8836 34.6575 19.9987C34.6575 18.0287 35.4236 16.4357 36.9436 15.2197C38.4637 14.0036 40.835 13.3956 44.0454 13.3956H49.1771V12.6173C49.1771 11.6323 48.861 10.9027 48.2164 10.4406C47.5841 9.97847 46.7815 9.74742 45.8208 9.74742C44.8966 9.74742 44.1184 9.92983 43.4982 10.2946C42.878 10.6595 42.4888 11.1945 42.3429 11.9242H35.2533C35.3749 10.3311 35.8857 8.9205 36.7977 7.69229C37.7098 6.46408 38.9501 5.5034 40.5188 4.82241C42.0875 4.14142 43.863 3.80093 45.8695 3.80093C49.1406 3.78877 51.743 4.54272 53.6887 6.05062ZM48.8002 17.518H44.9817C44.2035 17.518 43.5955 17.6761 43.182 17.9922C42.7564 18.3084 42.5496 18.734 42.5496 19.2569C42.5496 19.7798 42.7564 20.169 43.182 20.4365C43.6076 20.6919 44.1427 20.8256 44.8115 20.8256C46.8666 20.8256 48.1921 19.719 48.8002 17.518Z" fill="#FDF9FF"/>
<path d="M78.9463 6.47698C80.3812 8.27674 81.0987 10.8304 81.0987 14.1259V25.8608H73.7051V14.7826C73.7051 13.2139 73.4132 12.0343 72.8174 11.2196C72.2215 10.4048 71.2487 10.0035 69.8867 10.0035C68.6463 10.0035 67.637 10.4291 66.8709 11.2804C66.1047 12.1316 65.7156 13.299 65.7156 14.7826V25.8608H58.2855V4.31241H64.7549L65.363 7.74167C66.0926 6.52562 67.0533 5.56494 68.2693 4.84747C69.4854 4.14216 70.9325 3.77734 72.6106 3.77734C75.3954 3.7895 77.5113 4.68938 78.9463 6.47698Z" fill="#FDF9FF"/>
<path d="M106.028 25.8611L103.899 19.5984H93.1252L90.9971 25.8611H83.2144L92.6023 0.0078125H104.52L113.908 25.8611H106.028ZM95.083 13.8708H101.99L98.5123 3.65597L95.083 13.8708Z" fill="#00D46E"/>
</svg>
